<svg width="73" height="64" xmlns="http://www.w3.org/2000/svg">

 <g>
  <title>background</title>
  <rect fill="#ffffff" id="canvas_background" height="66" width="75" y="-1" x="-1"/>
 </g>
 <g>
  <title>Layer 1</title>
  <path stroke="null" id="svg_1" fill-rule="evenodd" clip-rule="evenodd" fill="#0198e7" d="m29.558594,50.455905l6.587669,0l0,-16.159847l4.39471,0l0.582184,-5.568128l-4.976894,0l0.006838,-2.788024c0,-1.451436 0.136755,-2.230617 2.191982,-2.230617l2.746816,0l0,-5.569118l-4.395686,0c-5.279708,0 -7.137618,2.701888 -7.137618,7.244309l0,3.343451l-3.290904,0l0,5.569118l3.290904,0l0,16.158857zm4.136829,13.544095c-16.183941,0 -29.304577,-13.298558 -29.304577,-29.701962c0,-16.404394 13.120636,-29.701962 29.304577,-29.701962s29.304577,13.297568 29.304577,29.701962c0,16.403403 -13.120636,29.701962 -29.304577,29.701962z"/>
 </g>
</svg>